<mxfile host="app.diagrams.net" modified="2022-04-28T07:34:22.739Z" agent="5.0 (Macintosh; Intel Mac OS X 10_15_7) AppleWebKit/537.36 (KHTML, like Gecko) Chrome/100.0.4896.127 Safari/537.36" etag="EFeRCdfesr58SoYxHp1T" version="17.4.6" type="github">
  <diagram id="L2R32xq3GNuSgDwLyyQL" name="分层架构">
    <mxGraphModel dx="1271" dy="629" grid="1" gridSize="10" guides="1" tooltips="1" connect="1" arrows="1" fold="1" page="1" pageScale="1" pageWidth="827" pageHeight="1169" math="0" shadow="0">
      <root>
        <mxCell id="0" />
        <mxCell id="1" parent="0" />
        <mxCell id="dHJ5faFvzqeMJSQzpvrs-1" value="中台服务" style="rounded=0;whiteSpace=wrap;html=1;verticalAlign=top;" parent="1" vertex="1">
          <mxGeometry x="110" y="100" width="580" height="140" as="geometry" />
        </mxCell>
        <mxCell id="dHJ5faFvzqeMJSQzpvrs-2" value="用户权限集成" style="rounded=1;whiteSpace=wrap;html=1;" parent="1" vertex="1">
          <mxGeometry x="120" y="150" width="80" height="30" as="geometry" />
        </mxCell>
        <mxCell id="dHJ5faFvzqeMJSQzpvrs-3" value="单点登录" style="rounded=1;whiteSpace=wrap;html=1;" parent="1" vertex="1">
          <mxGeometry x="120" y="190" width="80" height="30" as="geometry" />
        </mxCell>
        <mxCell id="dHJ5faFvzqeMJSQzpvrs-5" value="主数据管理" style="rounded=1;whiteSpace=wrap;html=1;" parent="1" vertex="1">
          <mxGeometry x="260" y="150" width="80" height="30" as="geometry" />
        </mxCell>
        <mxCell id="dHJ5faFvzqeMJSQzpvrs-6" value="指标管理" style="rounded=1;whiteSpace=wrap;html=1;" parent="1" vertex="1">
          <mxGeometry x="260" y="190" width="80" height="30" as="geometry" />
        </mxCell>
        <mxCell id="dHJ5faFvzqeMJSQzpvrs-7" value="数据接口" style="rounded=1;whiteSpace=wrap;html=1;" parent="1" vertex="1">
          <mxGeometry x="460" y="150" width="80" height="30" as="geometry" />
        </mxCell>
        <mxCell id="9xCpuu_k8cyC96uPTRZQ-1" value="数据目录" style="rounded=1;whiteSpace=wrap;html=1;" vertex="1" parent="1">
          <mxGeometry x="360" y="150" width="80" height="30" as="geometry" />
        </mxCell>
        <mxCell id="9xCpuu_k8cyC96uPTRZQ-2" value="数据查看" style="rounded=1;whiteSpace=wrap;html=1;" vertex="1" parent="1">
          <mxGeometry x="360" y="190" width="80" height="30" as="geometry" />
        </mxCell>
        <mxCell id="9xCpuu_k8cyC96uPTRZQ-3" value="中台服务" style="rounded=0;whiteSpace=wrap;html=1;verticalAlign=top;" vertex="1" parent="1">
          <mxGeometry x="110" y="270" width="580" height="140" as="geometry" />
        </mxCell>
        <mxCell id="9xCpuu_k8cyC96uPTRZQ-4" value="数据采集" style="rounded=0;whiteSpace=wrap;html=1;verticalAlign=top;" vertex="1" parent="1">
          <mxGeometry x="110" y="560" width="450" height="140" as="geometry" />
        </mxCell>
        <mxCell id="9xCpuu_k8cyC96uPTRZQ-8" value="CPS平台" style="rounded=0;whiteSpace=wrap;html=1;verticalAlign=top;align=center;" vertex="1" parent="1">
          <mxGeometry x="110" y="750" width="80" height="30" as="geometry" />
        </mxCell>
        <mxCell id="9xCpuu_k8cyC96uPTRZQ-9" value="共享中心" style="rounded=0;whiteSpace=wrap;html=1;verticalAlign=top;align=center;" vertex="1" parent="1">
          <mxGeometry x="110" y="790" width="80" height="30" as="geometry" />
        </mxCell>
        <mxCell id="9xCpuu_k8cyC96uPTRZQ-10" value="生产管理" style="rounded=0;whiteSpace=wrap;html=1;verticalAlign=top;align=center;" vertex="1" parent="1">
          <mxGeometry x="200" y="750" width="80" height="30" as="geometry" />
        </mxCell>
        <mxCell id="9xCpuu_k8cyC96uPTRZQ-11" value="质量管理" style="rounded=0;whiteSpace=wrap;html=1;verticalAlign=top;align=center;" vertex="1" parent="1">
          <mxGeometry x="290" y="750" width="80" height="30" as="geometry" />
        </mxCell>
        <mxCell id="9xCpuu_k8cyC96uPTRZQ-12" value="设备管理" style="rounded=0;whiteSpace=wrap;html=1;verticalAlign=top;align=center;" vertex="1" parent="1">
          <mxGeometry x="380" y="750" width="80" height="30" as="geometry" />
        </mxCell>
        <mxCell id="9xCpuu_k8cyC96uPTRZQ-13" value="能源管理" style="rounded=0;whiteSpace=wrap;html=1;verticalAlign=top;align=center;" vertex="1" parent="1">
          <mxGeometry x="470" y="750" width="80" height="30" as="geometry" />
        </mxCell>
        <mxCell id="9xCpuu_k8cyC96uPTRZQ-14" value="安全管理" style="rounded=0;whiteSpace=wrap;html=1;verticalAlign=top;align=center;" vertex="1" parent="1">
          <mxGeometry x="200" y="790" width="80" height="30" as="geometry" />
        </mxCell>
        <mxCell id="9xCpuu_k8cyC96uPTRZQ-15" value="环保管理" style="rounded=0;whiteSpace=wrap;html=1;verticalAlign=top;align=center;" vertex="1" parent="1">
          <mxGeometry x="290" y="790" width="80" height="30" as="geometry" />
        </mxCell>
        <mxCell id="9xCpuu_k8cyC96uPTRZQ-16" value="物流一卡通" style="rounded=0;whiteSpace=wrap;html=1;verticalAlign=top;align=center;" vertex="1" parent="1">
          <mxGeometry x="380" y="790" width="80" height="30" as="geometry" />
        </mxCell>
        <mxCell id="9xCpuu_k8cyC96uPTRZQ-17" value="全量数据采集&lt;br&gt;SpringBoot" style="rounded=0;whiteSpace=wrap;html=1;verticalAlign=top;align=center;" vertex="1" parent="1">
          <mxGeometry x="120" y="585" width="100" height="40" as="geometry" />
        </mxCell>
        <mxCell id="9xCpuu_k8cyC96uPTRZQ-18" value="增量数据采集&lt;br&gt;SpringBoot" style="rounded=0;whiteSpace=wrap;html=1;verticalAlign=top;align=center;" vertex="1" parent="1">
          <mxGeometry x="120" y="640" width="100" height="40" as="geometry" />
        </mxCell>
        <mxCell id="9xCpuu_k8cyC96uPTRZQ-19" value="流式数据采集&lt;br&gt;Kafka/MQTT" style="rounded=0;whiteSpace=wrap;html=1;verticalAlign=top;align=center;" vertex="1" parent="1">
          <mxGeometry x="230" y="585" width="100" height="40" as="geometry" />
        </mxCell>
        <mxCell id="9xCpuu_k8cyC96uPTRZQ-20" value="任务调度&lt;br&gt;PowerJob" style="rounded=0;whiteSpace=wrap;html=1;verticalAlign=top;align=center;" vertex="1" parent="1">
          <mxGeometry x="630" y="585" width="100" height="40" as="geometry" />
        </mxCell>
        <mxCell id="9xCpuu_k8cyC96uPTRZQ-21" value="数据补采&lt;br&gt;SpringBoot" style="rounded=0;whiteSpace=wrap;html=1;verticalAlign=top;align=center;" vertex="1" parent="1">
          <mxGeometry x="450" y="585" width="100" height="40" as="geometry" />
        </mxCell>
        <mxCell id="9xCpuu_k8cyC96uPTRZQ-22" value="数据补采&lt;br&gt;SpringBoot" style="rounded=0;whiteSpace=wrap;html=1;verticalAlign=top;align=center;" vertex="1" parent="1">
          <mxGeometry x="450" y="640" width="100" height="40" as="geometry" />
        </mxCell>
        <mxCell id="9xCpuu_k8cyC96uPTRZQ-23" value="任务监控&lt;br&gt;SpringBoot" style="rounded=0;whiteSpace=wrap;html=1;verticalAlign=top;align=center;" vertex="1" parent="1">
          <mxGeometry x="630" y="640" width="100" height="40" as="geometry" />
        </mxCell>
        <mxCell id="9xCpuu_k8cyC96uPTRZQ-24" value="数据对账&lt;br&gt;SpringBoot" style="rounded=0;whiteSpace=wrap;html=1;verticalAlign=top;align=center;" vertex="1" parent="1">
          <mxGeometry x="340" y="585" width="100" height="40" as="geometry" />
        </mxCell>
      </root>
    </mxGraphModel>
  </diagram>
</mxfile>
